<mxfile host="65bd71144e">
    <diagram id="HIP3nbAZw_EuaXWnEj3U" name="Page-1">
        <mxGraphModel dx="462" dy="569" grid="1" gridSize="10" guides="1" tooltips="1" connect="1" arrows="1" fold="1" page="1" pageScale="1" pageWidth="850" pageHeight="1100" math="0" shadow="0">
            <root>
                <mxCell id="0"/>
                <mxCell id="1" parent="0"/>
                <mxCell id="5" style="edgeStyle=none;html=1;entryX=0.5;entryY=0;entryDx=0;entryDy=0;" edge="1" parent="1" source="2" target="4">
                    <mxGeometry relative="1" as="geometry"/>
                </mxCell>
                <mxCell id="2" value="Start" style="strokeWidth=2;html=1;shape=mxgraph.flowchart.terminator;whiteSpace=wrap;" parent="1" vertex="1">
                    <mxGeometry x="375" y="10" width="100" height="60" as="geometry"/>
                </mxCell>
                <mxCell id="7" style="edgeStyle=none;html=1;entryX=0.614;entryY=0.021;entryDx=0;entryDy=0;entryPerimeter=0;" edge="1" parent="1" source="4" target="6">
                    <mxGeometry relative="1" as="geometry"/>
                </mxCell>
                <mxCell id="4" value="inputs size" style="shape=parallelogram;html=1;strokeWidth=2;perimeter=parallelogramPerimeter;whiteSpace=wrap;rounded=1;arcSize=12;size=0.23;" vertex="1" parent="1">
                    <mxGeometry x="375" y="100" width="100" height="60" as="geometry"/>
                </mxCell>
                <mxCell id="MIZYTr7ud4k09izZkJ4G-14" style="edgeStyle=none;html=1;entryX=1;entryY=0.5;entryDx=0;entryDy=0;entryPerimeter=0;" edge="1" parent="1" source="6" target="8">
                    <mxGeometry relative="1" as="geometry">
                        <mxPoint x="420" y="320" as="targetPoint"/>
                        <Array as="points">
                            <mxPoint x="410" y="320"/>
                        </Array>
                    </mxGeometry>
                </mxCell>
                <mxCell id="MIZYTr7ud4k09izZkJ4G-15" style="edgeStyle=none;html=1;entryX=0;entryY=0.5;entryDx=0;entryDy=0;entryPerimeter=0;" edge="1" parent="1" source="6" target="MIZYTr7ud4k09izZkJ4G-25">
                    <mxGeometry relative="1" as="geometry">
                        <mxPoint x="490" y="320" as="targetPoint"/>
                        <Array as="points">
                            <mxPoint x="410" y="320"/>
                        </Array>
                    </mxGeometry>
                </mxCell>
                <mxCell id="6" value="inputs food" style="shape=parallelogram;html=1;strokeWidth=2;perimeter=parallelogramPerimeter;whiteSpace=wrap;rounded=1;arcSize=12;size=0.23;" vertex="1" parent="1">
                    <mxGeometry x="360" y="200" width="100" height="60" as="geometry"/>
                </mxCell>
                <mxCell id="MIZYTr7ud4k09izZkJ4G-10" style="edgeStyle=none;html=1;entryX=0.979;entryY=0.422;entryDx=0;entryDy=0;entryPerimeter=0;" edge="1" parent="1" source="8" target="MIZYTr7ud4k09izZkJ4G-9">
                    <mxGeometry relative="1" as="geometry"/>
                </mxCell>
                <mxCell id="MIZYTr7ud4k09izZkJ4G-18" style="edgeStyle=none;html=1;entryX=0.5;entryY=0;entryDx=0;entryDy=0;entryPerimeter=0;" edge="1" parent="1" source="8" target="MIZYTr7ud4k09izZkJ4G-17">
                    <mxGeometry relative="1" as="geometry"/>
                </mxCell>
                <mxCell id="8" value="if (user-size ==&lt;br&gt;&amp;nbsp; &quot;Large&quot; )" style="strokeWidth=2;html=1;shape=mxgraph.flowchart.decision;whiteSpace=wrap;" vertex="1" parent="1">
                    <mxGeometry x="240" y="270" width="100" height="100" as="geometry"/>
                </mxCell>
                <mxCell id="MIZYTr7ud4k09izZkJ4G-9" value="SizePrice = 6.00" style="rounded=1;whiteSpace=wrap;html=1;absoluteArcSize=1;arcSize=14;strokeWidth=2;" vertex="1" parent="1">
                    <mxGeometry x="100" y="280" width="100" height="100" as="geometry"/>
                </mxCell>
                <mxCell id="MIZYTr7ud4k09izZkJ4G-11" value="True" style="text;html=1;align=center;verticalAlign=middle;resizable=0;points=[];autosize=1;strokeColor=none;fillColor=none;" vertex="1" parent="1">
                    <mxGeometry x="200" y="290" width="50" height="30" as="geometry"/>
                </mxCell>
                <mxCell id="MIZYTr7ud4k09izZkJ4G-12" value="False" style="text;html=1;align=center;verticalAlign=middle;resizable=0;points=[];autosize=1;strokeColor=none;fillColor=none;" vertex="1" parent="1">
                    <mxGeometry x="310" y="350" width="50" height="30" as="geometry"/>
                </mxCell>
                <mxCell id="MIZYTr7ud4k09izZkJ4G-20" style="edgeStyle=none;html=1;entryX=1;entryY=0.5;entryDx=0;entryDy=0;" edge="1" parent="1" source="MIZYTr7ud4k09izZkJ4G-17" target="MIZYTr7ud4k09izZkJ4G-19">
                    <mxGeometry relative="1" as="geometry"/>
                </mxCell>
                <mxCell id="MIZYTr7ud4k09izZkJ4G-66" style="edgeStyle=orthogonalEdgeStyle;html=1;entryX=0.5;entryY=0;entryDx=0;entryDy=0;" edge="1" parent="1" source="MIZYTr7ud4k09izZkJ4G-17" target="MIZYTr7ud4k09izZkJ4G-65">
                    <mxGeometry relative="1" as="geometry"/>
                </mxCell>
                <mxCell id="MIZYTr7ud4k09izZkJ4G-17" value="else if (user-size == &quot;Extra Large&quot;)" style="strokeWidth=2;html=1;shape=mxgraph.flowchart.decision;whiteSpace=wrap;" vertex="1" parent="1">
                    <mxGeometry x="240" y="420" width="100" height="100" as="geometry"/>
                </mxCell>
                <mxCell id="MIZYTr7ud4k09izZkJ4G-24" style="edgeStyle=orthogonalEdgeStyle;html=1;" edge="1" parent="1" source="MIZYTr7ud4k09izZkJ4G-19">
                    <mxGeometry relative="1" as="geometry">
                        <mxPoint x="40" y="470" as="targetPoint"/>
                    </mxGeometry>
                </mxCell>
                <mxCell id="MIZYTr7ud4k09izZkJ4G-19" value="SizePrice = 10.00" style="rounded=1;whiteSpace=wrap;html=1;absoluteArcSize=1;arcSize=14;strokeWidth=2;" vertex="1" parent="1">
                    <mxGeometry x="100" y="420" width="100" height="100" as="geometry"/>
                </mxCell>
                <mxCell id="MIZYTr7ud4k09izZkJ4G-21" value="True" style="text;html=1;align=center;verticalAlign=middle;resizable=0;points=[];autosize=1;strokeColor=none;fillColor=none;" vertex="1" parent="1">
                    <mxGeometry x="195" y="425" width="50" height="30" as="geometry"/>
                </mxCell>
                <mxCell id="MIZYTr7ud4k09izZkJ4G-22" value="False" style="text;html=1;align=center;verticalAlign=middle;resizable=0;points=[];autosize=1;strokeColor=none;fillColor=none;" vertex="1" parent="1">
                    <mxGeometry x="305" y="495" width="50" height="30" as="geometry"/>
                </mxCell>
                <mxCell id="MIZYTr7ud4k09izZkJ4G-23" value="" style="endArrow=none;html=1;entryX=-0.04;entryY=0.441;entryDx=0;entryDy=0;entryPerimeter=0;edgeStyle=orthogonalEdgeStyle;exitX=0;exitY=0.5;exitDx=0;exitDy=0;" edge="1" parent="1" source="MIZYTr7ud4k09izZkJ4G-69" target="MIZYTr7ud4k09izZkJ4G-9">
                    <mxGeometry width="50" height="50" relative="1" as="geometry">
                        <mxPoint x="290" y="960" as="sourcePoint"/>
                        <mxPoint x="60" y="330" as="targetPoint"/>
                        <Array as="points">
                            <mxPoint x="40" y="960"/>
                            <mxPoint x="40" y="324"/>
                        </Array>
                    </mxGeometry>
                </mxCell>
                <mxCell id="MIZYTr7ud4k09izZkJ4G-26" style="edgeStyle=orthogonalEdgeStyle;html=1;" edge="1" parent="1" source="MIZYTr7ud4k09izZkJ4G-25">
                    <mxGeometry relative="1" as="geometry">
                        <mxPoint x="650" y="320" as="targetPoint"/>
                    </mxGeometry>
                </mxCell>
                <mxCell id="MIZYTr7ud4k09izZkJ4G-29" style="edgeStyle=orthogonalEdgeStyle;html=1;entryX=0.5;entryY=0;entryDx=0;entryDy=0;entryPerimeter=0;" edge="1" parent="1" source="MIZYTr7ud4k09izZkJ4G-25" target="MIZYTr7ud4k09izZkJ4G-31">
                    <mxGeometry relative="1" as="geometry">
                        <mxPoint x="540" y="430" as="targetPoint"/>
                    </mxGeometry>
                </mxCell>
                <mxCell id="MIZYTr7ud4k09izZkJ4G-25" value="if (usertopping == &quot;Onion&quot;" style="strokeWidth=2;html=1;shape=mxgraph.flowchart.decision;whiteSpace=wrap;" vertex="1" parent="1">
                    <mxGeometry x="490" y="270" width="100" height="100" as="geometry"/>
                </mxCell>
                <mxCell id="MIZYTr7ud4k09izZkJ4G-27" value="True" style="text;html=1;align=center;verticalAlign=middle;resizable=0;points=[];autosize=1;strokeColor=none;fillColor=none;" vertex="1" parent="1">
                    <mxGeometry x="585" y="275" width="50" height="30" as="geometry"/>
                </mxCell>
                <mxCell id="MIZYTr7ud4k09izZkJ4G-28" value="False" style="text;html=1;align=center;verticalAlign=middle;resizable=0;points=[];autosize=1;strokeColor=none;fillColor=none;" vertex="1" parent="1">
                    <mxGeometry x="465" y="365" width="50" height="30" as="geometry"/>
                </mxCell>
                <mxCell id="MIZYTr7ud4k09izZkJ4G-30" value="ToppingPrice = 1.00" style="rounded=1;whiteSpace=wrap;html=1;absoluteArcSize=1;arcSize=14;strokeWidth=2;" vertex="1" parent="1">
                    <mxGeometry x="650" y="270" width="100" height="100" as="geometry"/>
                </mxCell>
                <mxCell id="MIZYTr7ud4k09izZkJ4G-39" style="edgeStyle=orthogonalEdgeStyle;html=1;entryX=0.5;entryY=0;entryDx=0;entryDy=0;entryPerimeter=0;" edge="1" parent="1" source="MIZYTr7ud4k09izZkJ4G-31" target="MIZYTr7ud4k09izZkJ4G-38">
                    <mxGeometry relative="1" as="geometry"/>
                </mxCell>
                <mxCell id="MIZYTr7ud4k09izZkJ4G-44" style="edgeStyle=orthogonalEdgeStyle;html=1;entryX=0.009;entryY=0.603;entryDx=0;entryDy=0;entryPerimeter=0;" edge="1" parent="1" source="MIZYTr7ud4k09izZkJ4G-31" target="MIZYTr7ud4k09izZkJ4G-34">
                    <mxGeometry relative="1" as="geometry"/>
                </mxCell>
                <mxCell id="MIZYTr7ud4k09izZkJ4G-31" value="if (usertopping == &quot;Tomatoes&quot;" style="strokeWidth=2;html=1;shape=mxgraph.flowchart.decision;whiteSpace=wrap;" vertex="1" parent="1">
                    <mxGeometry x="490" y="440" width="100" height="100" as="geometry"/>
                </mxCell>
                <mxCell id="MIZYTr7ud4k09izZkJ4G-34" value="ToppingPrice = 1.75" style="rounded=1;whiteSpace=wrap;html=1;absoluteArcSize=1;arcSize=14;strokeWidth=2;" vertex="1" parent="1">
                    <mxGeometry x="650" y="430" width="100" height="100" as="geometry"/>
                </mxCell>
                <mxCell id="MIZYTr7ud4k09izZkJ4G-35" value="ToppingPrice = 3.35" style="rounded=1;whiteSpace=wrap;html=1;absoluteArcSize=1;arcSize=14;strokeWidth=2;" vertex="1" parent="1">
                    <mxGeometry x="650" y="740" width="100" height="100" as="geometry"/>
                </mxCell>
                <mxCell id="MIZYTr7ud4k09izZkJ4G-36" value="ToppingPrice = 2.50" style="rounded=1;whiteSpace=wrap;html=1;absoluteArcSize=1;arcSize=14;strokeWidth=2;" vertex="1" parent="1">
                    <mxGeometry x="650" y="590" width="100" height="100" as="geometry"/>
                </mxCell>
                <mxCell id="MIZYTr7ud4k09izZkJ4G-42" style="edgeStyle=orthogonalEdgeStyle;html=1;entryX=0.5;entryY=0;entryDx=0;entryDy=0;" edge="1" parent="1" source="MIZYTr7ud4k09izZkJ4G-37" target="MIZYTr7ud4k09izZkJ4G-41">
                    <mxGeometry relative="1" as="geometry"/>
                </mxCell>
                <mxCell id="MIZYTr7ud4k09izZkJ4G-46" style="edgeStyle=orthogonalEdgeStyle;html=1;entryX=0;entryY=0.5;entryDx=0;entryDy=0;" edge="1" parent="1" source="MIZYTr7ud4k09izZkJ4G-37" target="MIZYTr7ud4k09izZkJ4G-35">
                    <mxGeometry relative="1" as="geometry"/>
                </mxCell>
                <mxCell id="MIZYTr7ud4k09izZkJ4G-37" value="if (usertopping == &quot;Pineapple&quot;" style="strokeWidth=2;html=1;shape=mxgraph.flowchart.decision;whiteSpace=wrap;" vertex="1" parent="1">
                    <mxGeometry x="490" y="740" width="100" height="100" as="geometry"/>
                </mxCell>
                <mxCell id="MIZYTr7ud4k09izZkJ4G-40" style="edgeStyle=orthogonalEdgeStyle;html=1;entryX=0.5;entryY=0;entryDx=0;entryDy=0;entryPerimeter=0;" edge="1" parent="1" source="MIZYTr7ud4k09izZkJ4G-38" target="MIZYTr7ud4k09izZkJ4G-37">
                    <mxGeometry relative="1" as="geometry"/>
                </mxCell>
                <mxCell id="MIZYTr7ud4k09izZkJ4G-45" style="edgeStyle=orthogonalEdgeStyle;html=1;entryX=0;entryY=0.5;entryDx=0;entryDy=0;" edge="1" parent="1" source="MIZYTr7ud4k09izZkJ4G-38" target="MIZYTr7ud4k09izZkJ4G-36">
                    <mxGeometry relative="1" as="geometry">
                        <mxPoint x="640" y="640" as="targetPoint"/>
                    </mxGeometry>
                </mxCell>
                <mxCell id="MIZYTr7ud4k09izZkJ4G-38" value="if (usertopping == &quot;Ham&quot;" style="strokeWidth=2;html=1;shape=mxgraph.flowchart.decision;whiteSpace=wrap;" vertex="1" parent="1">
                    <mxGeometry x="490" y="590" width="100" height="100" as="geometry"/>
                </mxCell>
                <mxCell id="MIZYTr7ud4k09izZkJ4G-41" value="error" style="shape=parallelogram;html=1;strokeWidth=2;perimeter=parallelogramPerimeter;whiteSpace=wrap;rounded=1;arcSize=12;size=0.23;" vertex="1" parent="1">
                    <mxGeometry x="490" y="870" width="100" height="60" as="geometry"/>
                </mxCell>
                <mxCell id="MIZYTr7ud4k09izZkJ4G-47" value="False" style="text;html=1;align=center;verticalAlign=middle;resizable=0;points=[];autosize=1;strokeColor=none;fillColor=none;" vertex="1" parent="1">
                    <mxGeometry x="475" y="820" width="50" height="30" as="geometry"/>
                </mxCell>
                <mxCell id="MIZYTr7ud4k09izZkJ4G-48" value="False" style="text;html=1;align=center;verticalAlign=middle;resizable=0;points=[];autosize=1;strokeColor=none;fillColor=none;" vertex="1" parent="1">
                    <mxGeometry x="485" y="660" width="50" height="30" as="geometry"/>
                </mxCell>
                <mxCell id="MIZYTr7ud4k09izZkJ4G-49" value="False" style="text;html=1;align=center;verticalAlign=middle;resizable=0;points=[];autosize=1;strokeColor=none;fillColor=none;" vertex="1" parent="1">
                    <mxGeometry x="475" y="525" width="50" height="30" as="geometry"/>
                </mxCell>
                <mxCell id="MIZYTr7ud4k09izZkJ4G-62" value="True" style="text;html=1;align=center;verticalAlign=middle;resizable=0;points=[];autosize=1;strokeColor=none;fillColor=none;" vertex="1" parent="1">
                    <mxGeometry x="585" y="430" width="50" height="30" as="geometry"/>
                </mxCell>
                <mxCell id="MIZYTr7ud4k09izZkJ4G-63" value="True" style="text;html=1;align=center;verticalAlign=middle;resizable=0;points=[];autosize=1;strokeColor=none;fillColor=none;" vertex="1" parent="1">
                    <mxGeometry x="585" y="595" width="50" height="30" as="geometry"/>
                </mxCell>
                <mxCell id="MIZYTr7ud4k09izZkJ4G-64" value="True" style="text;html=1;align=center;verticalAlign=middle;resizable=0;points=[];autosize=1;strokeColor=none;fillColor=none;" vertex="1" parent="1">
                    <mxGeometry x="585" y="735" width="50" height="30" as="geometry"/>
                </mxCell>
                <mxCell id="MIZYTr7ud4k09izZkJ4G-65" value="error" style="shape=parallelogram;html=1;strokeWidth=2;perimeter=parallelogramPerimeter;whiteSpace=wrap;rounded=1;arcSize=12;size=0.23;" vertex="1" parent="1">
                    <mxGeometry x="240" y="600" width="100" height="60" as="geometry"/>
                </mxCell>
                <mxCell id="MIZYTr7ud4k09izZkJ4G-67" value="" style="endArrow=none;html=1;exitX=1;exitY=0.5;exitDx=0;exitDy=0;edgeStyle=orthogonalEdgeStyle;entryX=1;entryY=0.5;entryDx=0;entryDy=0;" edge="1" parent="1" source="MIZYTr7ud4k09izZkJ4G-30" target="MIZYTr7ud4k09izZkJ4G-69">
                    <mxGeometry width="50" height="50" relative="1" as="geometry">
                        <mxPoint x="760" y="380" as="sourcePoint"/>
                        <mxPoint x="770" y="960" as="targetPoint"/>
                        <Array as="points">
                            <mxPoint x="800" y="320"/>
                            <mxPoint x="800" y="960"/>
                        </Array>
                    </mxGeometry>
                </mxCell>
                <mxCell id="MIZYTr7ud4k09izZkJ4G-71" style="edgeStyle=orthogonalEdgeStyle;html=1;" edge="1" parent="1" source="MIZYTr7ud4k09izZkJ4G-69" target="MIZYTr7ud4k09izZkJ4G-70">
                    <mxGeometry relative="1" as="geometry"/>
                </mxCell>
                <mxCell id="MIZYTr7ud4k09izZkJ4G-69" value="SizePrice + ToppingPrice = total" style="rounded=1;whiteSpace=wrap;html=1;absoluteArcSize=1;arcSize=14;strokeWidth=2;" vertex="1" parent="1">
                    <mxGeometry x="325" y="930" width="75" height="40" as="geometry"/>
                </mxCell>
                <mxCell id="MIZYTr7ud4k09izZkJ4G-74" style="edgeStyle=orthogonalEdgeStyle;html=1;entryX=0;entryY=0.5;entryDx=0;entryDy=0;entryPerimeter=0;" edge="1" parent="1" source="MIZYTr7ud4k09izZkJ4G-70" target="MIZYTr7ud4k09izZkJ4G-73">
                    <mxGeometry relative="1" as="geometry"/>
                </mxCell>
                <mxCell id="MIZYTr7ud4k09izZkJ4G-70" value="&quot;Your total price is ___&quot;" style="shape=parallelogram;html=1;strokeWidth=2;perimeter=parallelogramPerimeter;whiteSpace=wrap;rounded=1;arcSize=12;size=0.23;" vertex="1" parent="1">
                    <mxGeometry x="312.5" y="1020" width="100" height="60" as="geometry"/>
                </mxCell>
                <mxCell id="MIZYTr7ud4k09izZkJ4G-73" value="stop" style="strokeWidth=2;html=1;shape=mxgraph.flowchart.terminator;whiteSpace=wrap;" vertex="1" parent="1">
                    <mxGeometry x="510" y="1020" width="100" height="60" as="geometry"/>
                </mxCell>
            </root>
        </mxGraphModel>
    </diagram>
    <diagram id="wYVmM6QZbSKrs5YmjAZx" name="第 2 页">
        <mxGraphModel dx="300" dy="370" grid="1" gridSize="10" guides="1" tooltips="1" connect="1" arrows="1" fold="1" page="1" pageScale="1" pageWidth="827" pageHeight="1169" math="0" shadow="0">
            <root>
                <mxCell id="0"/>
                <mxCell id="1" parent="0"/>
            </root>
        </mxGraphModel>
    </diagram>
</mxfile>